<svg xmlns="http://www.w3.org/2000/svg" viewBox="0 0 64 64"><rect width="64" height="64" rx="14" fill="#1A1A1A"/><g transform="translate(7.68,7.68) scale(0.76)"><defs><linearGradient id="shi1" x1="22%" y1="10%" x2="74%" y2="90%"><stop offset="0" stop-color="#F8BA5E"/><stop offset="0.5" stop-color="#F0A03A"/><stop offset="1" stop-color="#E5842A"/></linearGradient><filter id="bli1"><feGaussianBlur stdDeviation="7"/></filter><filter id="dpi1" x="-35%" y="-35%" width="180%" height="180%"><feDropShadow dx="0" dy="2" stdDeviation="2.2" flood-color="#8A4310" flood-opacity="0.18"/></filter><clipPath id="cpi1"><path d="M31.8,3.2 C38.4,2.9 43.8,7.4 46.6,14.2 C49.0,20.0 49.8,26.4 50.4,32.6 C51.0,39.2 50.6,46.2 46.8,51.8 C42.9,57.6 35.6,61.2 28.6,60.6 C21.6,60.0 15.6,55.0 13.2,48.4 C10.8,41.8 11.4,34.4 12.6,27.4 C13.9,19.8 16.2,11.6 21.8,6.6 C24.6,4.1 28.0,3.4 31.8,3.2 Z"/></clipPath></defs><path d="M31.8,3.2 C38.4,2.9 43.8,7.4 46.6,14.2 C49.0,20.0 49.8,26.4 50.4,32.6 C51.0,39.2 50.6,46.2 46.8,51.8 C42.9,57.6 35.6,61.2 28.6,60.6 C21.6,60.0 15.6,55.0 13.2,48.4 C10.8,41.8 11.4,34.4 12.6,27.4 C13.9,19.8 16.2,11.6 21.8,6.6 C24.6,4.1 28.0,3.4 31.8,3.2 Z" fill="url(#shi1)" stroke="#D9761C" stroke-width="1.7" stroke-linejoin="round" filter="url(#dpi1)"/><g clip-path="url(#cpi1)"><ellipse cx="24" cy="17" rx="17" ry="18" fill="#FFFFFF" opacity="0.20" filter="url(#bli1)"/></g><rect x="22.8" y="22.2" width="4.5" height="10.0" rx="2.25" fill="#3B2416"/><rect x="35.0" y="21.6" width="4.2" height="9.6" rx="2.1" fill="#3B2416"/><path d="M45.4,33.0 C46.2,41.4 42.6,49.4 35.4,52.8" fill="none" stroke="#DD8A2E" stroke-width="1.5" stroke-linecap="round" opacity="0.55"/><path d="M22.6,40.8 C24.4,42.6 27.2,43.0 29.4,41.8" fill="none" stroke="#DD8A2E" stroke-width="1.6" stroke-linecap="round" opacity="0.8"/><path d="M22.6,16.0 C24.2,14.6 26.4,14.5 28.0,15.6" fill="none" stroke="#DD8A2E" stroke-width="1.5" stroke-linecap="round" opacity="0.7"/><ellipse cx="41.8" cy="16.8" rx="1.0" ry="1.3" fill="#DD8A2E" opacity="0.5"/><ellipse cx="43.0" cy="43.2" rx="1.1" ry="1.4" fill="#DD8A2E" opacity="0.45"/></g></svg>