<svg xmlns="http://www.w3.org/2000/svg" viewBox="0 0 300 162" width="300" height="162"><title>PotatoFarm.io</title><rect width="300" height="162" fill="#1A1A1A"/><g transform="translate(96.0,12) scale(1.6875)"><defs><linearGradient id="shs3" x1="24%" y1="14%" x2="70%" y2="86%"><stop offset="0" stop-color="#FF8533"/><stop offset="0.5" stop-color="#FF6600"/><stop offset="1" stop-color="#E55C00"/></linearGradient><filter id="bls3"><feGaussianBlur stdDeviation="7"/></filter><filter id="dps3" x="-35%" y="-35%" width="180%" height="180%"><feDropShadow dx="0" dy="2" stdDeviation="2.2" flood-color="#8A4310" flood-opacity="0.18"/></filter><clipPath id="cps3"><path d="M33,4 C42,4.5 48,11 50,20 C52,29 50,37 48,44 C45,53 38,60 30,60 C21,60 15,54 13,45 C11,35 12,24 16,15 C20,7 26,3.5 33,4 Z"/></clipPath></defs><path d="M33,4 C42,4.5 48,11 50,20 C52,29 50,37 48,44 C45,53 38,60 30,60 C21,60 15,54 13,45 C11,35 12,24 16,15 C20,7 26,3.5 33,4 Z" fill="url(#shs3)" filter="url(#dps3)"/><g clip-path="url(#cps3)"><ellipse cx="25" cy="20" rx="17" ry="19" fill="#FFFFFF" opacity="0.15" filter="url(#bls3)"/></g><ellipse cx="25.5" cy="25" rx="3.2" ry="4.9" fill="#8A4310"/><ellipse cx="38.5" cy="24.2" rx="3.1" ry="4.8" fill="#8A4310"/></g><text x="30" y="146" font-family="Inter,-apple-system,BlinkMacSystemFont,'Segoe UI',Roboto,sans-serif" font-size="30" font-weight="500" letter-spacing="-0.4" fill="#F4F3F0">PotatoFarm<tspan fill="#FF8533">.io</tspan></text></svg>